<?xml version="1.0" encoding="utf-8"?>
<!-- Generator: Adobe Illustrator 23.0.3, SVG Export Plug-In . SVG Version: 6.00 Build 0)  -->
<svg version="1.1" xmlns="http://www.w3.org/2000/svg" xmlns:xlink="http://www.w3.org/1999/xlink" x="0px" y="0px"
	 viewBox="0 0 595.3 841.9" style="enable-background:new 0 0 595.3 841.9;" xml:space="preserve">
<style type="text/css">
	.st0{fill:#FFFFFF;}
</style>
<g id="Слой_10">
	<g>
		<rect x="139.2" y="253.7" class="st0" width="24.7" height="209.6"/>
	</g>
</g>
<g id="Слой_9">
	<g>
		<rect x="139.2" y="253.7" class="st0" width="24.7" height="209.6"/>
	</g>
	<g>
		<rect x="435.2" y="253.7" class="st0" width="24.7" height="209.6"/>
	</g>
</g>
<g id="Слой_8">
	<g>
		<rect x="139.2" y="253.7" class="st0" width="24.7" height="209.6"/>
	</g>
	<g>
		<rect x="287.2" y="253.7" class="st0" width="24.7" height="209.6"/>
	</g>
</g>
<g id="Слой_7">
	<g>
		<rect x="139.2" y="253.7" class="st0" width="24.7" height="209.6"/>
	</g>
	<g>
		<rect x="213.2" y="358.5" class="st0" width="24.7" height="104.8"/>
	</g>
</g>
<g id="Слой_6">
	<g>
		<rect x="139.2" y="253.7" class="st0" width="24.7" height="209.6"/>
	</g>
	<g>
		<rect x="361.2" y="358.5" class="st0" width="24.7" height="104.8"/>
	</g>
</g>
<g id="Слой_5">
	<path class="st0" d="M336.5,503.4c-22.1,0-40.1,17.9-40.1,40.1c0,22.1,17.9,40.1,40.1,40.1c22.1,0,40.1-17.9,40.1-40.1
		C376.6,521.3,358.7,503.4,336.5,503.4z M336.5,563.5c-11.1,0-20-9-20-20s9-20,20-20c11.1,0,20,9,20,20S347.6,563.5,336.5,563.5z"/>
</g>
<g id="Слой_4">
	<path class="st0" d="M170.4,529.3l14.2-14.2c-15.6-15.6-41-15.6-56.7,0c-15.6,15.6-15.6,41,0,56.7c15.6,15.6,41,15.6,56.7,0
		l-14.2-14.2c-7.8,7.8-20.5,7.8-28.3,0c-7.8-7.8-7.8-20.5,0-28.3C149.9,521.5,162.5,521.5,170.4,529.3z"/>
</g>
<g id="Слой_3">
	<path class="st0" d="M442.9,503.4c-22.1,0-40.1,17.9-40.1,40.1v40.1h20v-40.1c0-11.1,9-20,20-20c11.1,0,20,9,20,20v40.1h20v-40.1
		C482.9,521.3,465,503.4,442.9,503.4z"/>
</g>
<g id="Слой_2">
	<path class="st0" d="M442.9,503.4c-22.1,0-40.1,17.9-40.1,40.1v40.1h20v-40.1c0-11.1,9-20,20-20c11.1,0,20,9,20,20v40.1h20v-40.1
		C482.9,521.3,465,503.4,442.9,503.4z"/>
	<path class="st0" d="M216.3,543.5v40.1h20v-40.1c0-11.1,9-20,20-20h20v-20h-20C234.2,503.4,216.3,521.3,216.3,543.5z"/>
</g>
</svg>
